<svg width="37" height="30" viewBox="0 0 37 30" fill="none" xmlns="http://www.w3.org/2000/svg">
<g clip-path="url(#clip0_1_499)">
<path fill-rule="evenodd" clip-rule="evenodd" d="M37.0072 0.824174C36.9567 0.576748 36.8527 0.382905 36.391 0.181182C35.4375 -0.238024 33.3399 0.203245 33.1902 0.215853C31.5906 0.529469 30.0178 0.978618 28.4765 1.5302C26.1913 2.34813 23.9803 3.39142 21.8401 4.48671C19.5723 5.67341 17.3943 6.99091 15.3834 8.51329C13.3488 10.0546 11.4719 11.7803 9.76981 13.6588C8.74701 14.7888 7.78568 15.9707 6.91575 17.2221C4.92058 20.095 3.35565 23.2485 2.14689 26.6274C2.10434 26.7251 2.15004 26.8386 2.24775 26.8811C2.34546 26.9237 2.45893 26.8811 2.50305 26.7818C4.12157 23.6866 6.12777 20.9208 8.35933 18.3457C9.31436 17.2457 10.3025 16.1819 11.3363 15.1607C13.0525 13.4681 14.8996 11.9126 16.849 10.4659C18.778 9.03336 20.7905 7.69064 22.9291 6.52127C24.6154 5.5757 26.3521 4.67267 28.1361 3.88154C29.9043 3.09829 31.7119 2.42062 33.5779 1.95729L36.8133 1.00699C36.9473 0.932915 37.0245 0.896668 37.0087 0.82575" fill="black"/>
<path fill-rule="evenodd" clip-rule="evenodd" d="M3.24375 15.3262C3.26581 14.6012 2.61494 14.0134 1.90418 14.1615C1.84745 14.1741 1.80647 14.1868 1.79072 14.2025C1.65045 14.3333 1.57166 14.5949 1.444 14.9527C1.33369 15.2647 1.24858 15.6272 1.1887 16.0259C1.02165 17.1149 1.04371 18.3189 1.02953 18.4639C0.950728 20.5978 0.517338 23.1193 0.500003 25.4706C0.493699 26.6069 0.583529 27.7085 0.830955 28.7187C0.879809 28.9125 0.966487 29.1537 1.09256 29.3459C1.19973 29.5098 1.33369 29.6485 1.48498 29.7525C1.82696 29.9889 2.24617 30.0661 2.70792 29.9369C3.17441 29.8077 3.80164 29.264 4.02385 29.089C4.98046 28.3263 5.95913 27.6155 6.93465 26.9158C7.85501 26.2539 8.79586 25.6345 9.72253 24.9837C11.1236 24.0018 12.4742 22.9901 13.9603 22.065C14.1872 21.9562 14.2802 21.6836 14.1715 21.4551C14.0612 21.2281 13.7885 21.1336 13.5616 21.2439C11.5522 21.9767 9.61379 22.7111 7.78567 23.7213C6.04423 24.6827 4.44621 25.8835 2.83873 27.1254C2.76939 26.5896 2.74102 26.0348 2.73629 25.4675C2.71738 23.1382 3.10349 20.6356 3.14289 18.5254L3.2406 15.3246L3.24375 15.3262Z" fill="black"/>
</g>
<defs>
<clipPath id="clip0_1_499">
<rect width="36.5087" height="30" fill="white" transform="translate(0.5 -6.10352e-05)"/>
</clipPath>
</defs>
</svg>
