<svg width="20" height="20" viewBox="0 0 20 20" fill="none" xmlns="http://www.w3.org/2000/svg">
<path d="M14.6328 3.38281C15.1211 2.89453 15.1211 2.10156 14.6328 1.61328C14.1445 1.125 13.3516 1.125 12.8633 1.61328L7.5 6.98047L5.25781 4.73828C4.76953 4.25 3.97656 4.25 3.48828 4.73828C3 5.22656 3 6.01953 3.48828 6.50781L6.61328 9.63281C7.10156 10.1211 7.89453 10.1211 8.38281 9.63281L14.6328 3.38281ZM18.3828 8.38281C18.8711 7.89453 18.8711 7.10156 18.3828 6.61328C17.8945 6.125 17.1016 6.125 16.6133 6.61328L7.5 15.7305L3.38281 11.6172C2.89453 11.1289 2.10156 11.1289 1.61328 11.6172C1.125 12.1055 1.125 12.8984 1.61328 13.3867L6.61328 18.3867C7.10156 18.875 7.89453 18.875 8.38281 18.3867L18.3828 8.38672V8.38281Z" fill="#0B0A0C"/>
</svg>
