<svg width="20" height="24" viewBox="0 0 20 24" fill="none" xmlns="http://www.w3.org/2000/svg">
<g clip-path="url(#clip0_1_408)">
<path d="M15.5982 2.42272C15.8616 1.80205 15.6652 1.07718 15.125 0.6785C14.5848 0.279821 13.8482 0.316065 13.3437 0.760048L1.91515 10.9082C1.46873 11.3069 1.30801 11.9457 1.51783 12.5075C1.72765 13.0693 2.26337 13.4498 2.85712 13.4498H7.8348L4.40176 21.5774C4.13837 22.1981 4.3348 22.923 4.87498 23.3217C5.41515 23.7203 6.15176 23.6841 6.65623 23.2401L18.0848 13.0919C18.5312 12.6932 18.6919 12.0544 18.4821 11.4927C18.2723 10.9309 17.741 10.5549 17.1428 10.5549H12.1652L15.5982 2.42272Z" fill="#0B0A0C"/>
</g>
<defs>
<clipPath id="clip0_1_408">
<rect width="20" height="23.1959" fill="white" transform="translate(0 0.4021)"/>
</clipPath>
</defs>
</svg>
