<svg width="20" height="24" viewBox="0 0 20 24" fill="none" xmlns="http://www.w3.org/2000/svg">
<g clip-path="url(#clip0_1_414)">
<path d="M15 2.71427C15 1.53123 14.0402 0.571411 12.8572 0.571411C11.6741 0.571411 10.7143 1.53123 10.7143 2.71427C10.7143 3.8973 11.6741 4.85713 12.8572 4.85713C14.0402 4.85713 15 3.8973 15 2.71427ZM6.3259 8.40623C6.76786 7.96427 7.37054 7.71427 8.00001 7.71427C8.08483 7.71427 8.16965 7.71873 8.25001 7.72766L6.85715 11.9107C6.44197 13.1607 6.93304 14.5357 8.05358 15.2366L11.9018 17.6428L10.7679 21.6071C10.5491 22.3661 10.9911 23.1562 11.75 23.375C12.5089 23.5937 13.2991 23.1518 13.5179 22.3928L14.7991 17.9107C15.0625 16.9911 14.683 16.0089 13.875 15.5044L11.3393 13.9196L12.7188 10.2411L12.9464 10.7902C13.6161 12.3884 15.1741 13.4286 16.9063 13.4286H17.8571C18.6473 13.4286 19.2857 12.7902 19.2857 12C19.2857 11.2098 18.6473 10.5714 17.8571 10.5714H16.9063C16.3304 10.5714 15.808 10.2232 15.5893 9.69195L15.308 9.0223C14.6563 7.45534 13.3393 6.25891 11.7143 5.75891L9.54019 5.08927C9.04465 4.93748 8.52679 4.85713 8.00447 4.85713C6.62054 4.85713 5.29019 5.40623 4.31251 6.38838L3.27679 7.41963C2.71876 7.97766 2.71876 8.88391 3.27679 9.44195C3.83483 9.99998 4.74108 9.99998 5.29912 9.44195L6.33037 8.4107L6.3259 8.40623ZM4.78572 16.2857H2.14287C1.35269 16.2857 0.714294 16.9241 0.714294 17.7143C0.714294 18.5044 1.35269 19.1428 2.14287 19.1428H5.25001C6.09822 19.1428 6.86608 18.6428 7.20983 17.8705L7.72322 16.7143L7.29911 16.4464C6.51787 15.9598 5.93751 15.25 5.60715 14.4419L4.78572 16.2857Z" fill="#0B0A0C"/>
</g>
<defs>
<clipPath id="clip0_1_414">
<rect width="20" height="22.8571" fill="white" transform="translate(0 0.571411)"/>
</clipPath>
</defs>
</svg>
