<svg width="50" height="48" viewBox="0 0 50 48" fill="none" xmlns="http://www.w3.org/2000/svg">
<path d="M28.4361 0C14.9334 0 4 10.7464 4 24C4 37.2536 14.9334 48 28.4361 48C35.0618 48 41.0642 45.4071 45.4703 41.2071C46.017 40.6821 46.1591 39.8679 45.8093 39.2036C45.4594 38.5393 44.705 38.1643 43.9506 38.2929C42.8791 38.475 41.7858 38.5714 40.6596 38.5714C30.0652 38.5714 21.4716 30.1286 21.4716 19.7143C21.4716 12.6643 25.4076 6.525 31.2351 3.28929C31.902 2.91429 32.2409 2.16429 32.0769 1.43571C31.9129 0.707143 31.2788 0.160714 30.5135 0.0964287C29.8247 0.0428573 29.1359 0.0107141 28.4361 0.0107141V0Z" fill="#0B0A0C"/>
</svg>
